<svg xmlns="http://www.w3.org/2000/svg" xmlns:xlink="http://www.w3.org/1999/xlink" width="419.953" height="240" viewBox="0 0 419.953 240"><defs><style>.a{fill:#4fd1c5;}.b{fill:#fff;}.c{fill:#0b2d50;}.d{mix-blend-mode:multiply;isolation:isolate;}.e{fill:#d1d3d4;}.f{fill:#50966a;}.g{fill:#f9cbcb;}.h{fill:#ebb0b0;}.i{fill:#f494a7;}.j{fill:#f7afbd;}.k{fill:#7d6959;}.l{fill:#ccc;}.m{fill:#646a6c;}.n{fill:url(#a);}.o{fill:#7072ba;}.p{fill:#225d3a;}</style><linearGradient id="a" x1="0.5" x2="0.5" y2="1" gradientUnits="objectBoundingBox"><stop offset="0" stop-color="#e38ddd"/><stop offset="0.004" stop-color="#8de3a7"/><stop offset="1" stop-color="#a6ac7d"/></linearGradient></defs><g transform="translate(-288.389 -118.761)"><g transform="translate(288.389 281.553)"><path class="a" d="M314.582,651c-1.626-4.489,11.144-9.331,13.98-5.933a32.292,32.292,0,0,0,8.458-7.669,72.945,72.945,0,0,1-9.219-5.92c-3.68,3.855-9.384,5.279-14.338,6.846.45,5.4-15.37,5.693-15.358.431-.141-4.681,12.858-5.394,14.9-1.6,4.737-1.493,10.215-2.821,13.8-6.422-3.165-2.381-6.236-4.9-9.361-7.336a21.433,21.433,0,0,1-11.706,3.26c-1.662,4.035-15.1,3.887-15.052-.914-.107-5.136,15.07-5.476,15.36-.392a20.673,20.673,0,0,0,10.365-2.752,74.771,74.771,0,0,0-13.975-8.907c-2.733,3.643-15.757-1.736-13.858-6.266,1.823-4.746,15.495.433,14.411,5.169a75.852,75.852,0,0,1,13.619,8.583,66.48,66.48,0,0,0-3.614-14.4c-4.265-.384-8.922-12.484-4.643-14.274,4.771-2.19,11.044,12.449,5.949,14.223,1.575,4.972,3.43,10.126,3.518,15.376,3.19,2.468,6.3,5.029,9.518,7.458a46.653,46.653,0,0,0,.181-15.191c-4.363-.554-7.365-13.849-2.745-14.967,4.98-1.366,8.791,13.44,4,14.919.677,5.226.936,10.851-.44,15.982a70.724,70.724,0,0,0,9.61,6.148,40.364,40.364,0,0,0,2.282-13.916c-3.97-1.584-4.911-14.63-.287-15.08,5.182-.674,6.89,15.165,1.523,15.4a37.868,37.868,0,0,1-2.473,14.121,67.17,67.17,0,0,0,9.583,3.892,39.728,39.728,0,0,0,1.561-6.271c-3.645-2.031-4.387-14.391.095-14.833,5.208-.854,7.041,16.126,1.066,15.366a35.673,35.673,0,0,1-1.564,6.106,139.919,139.919,0,0,0,14.725,3.554c3.693,3.384-14.44-2.252-15.543-2.5a35.426,35.426,0,0,1-3.238,4.373c2.932,4.659-11.453,11.875-13.683,7.11-2.109-4.12,9.228-10.358,12.745-7.926a33.333,33.333,0,0,0,2.953-3.948,69.928,69.928,0,0,1-9.582-3.939c-2.194,3.361-5.613,5.954-8.9,8.178C330.558,650.956,316.2,655.914,314.582,651Z" transform="translate(-288.389 -592.284)"/></g><g transform="translate(292.892 242.798)"><g transform="translate(0)"><path class="a" d="M338.08,521.751c-2.712.3-3.463,4.423-1.6,6.431,4.26,4.242,10.671.2,15.761.523-.436,14.04,21.24,9.5,28.3,3.653,1.295-5.826,6.143-19.324.421-25.452-2.462-2.9-7.161-4.047-10.15-1.721-2.442-5.118-4.523-11.867-10.033-14.324-2.871-1.062-6.859.528-7.09,3.593-1.4-6.2-6.428-13.733-13.019-14.89-3.186-.213-6.563,3.043-5.286,5.956-5.754-2.851-12.561-2.457-18.875-1.317-4.6.825-9.189,2.019-13.825,2.52a1.352,1.352,0,0,0-.443,2.558c15.818,5.78,10.411,17.7,20.981,20.46-2.943.187-6.563,2.216-6.245,5.534C318.916,521.872,332.31,522.1,338.08,521.751Z" transform="translate(-301.487 -479.554)"/></g><g transform="translate(12.523 8.085)"><path class="b" d="M404.053,548.24c-2.567-1.339-5.218-2.874-7.879-4.568a24.22,24.22,0,0,0-7.013.723c-.451,1.641-1.083,3.966-2.985,5.032a.517.517,0,0,1-.438-.924c1.269-.8,1.812-2.182,2.273-3.8-2.256.559-5.5,2.973-7.373.707a.482.482,0,0,1,.247-.766.533.533,0,0,1,.593.169c.657.81,1.857.528,2.539.291a26.891,26.891,0,0,1,10.566-2.46c-6.12-4.019-12.138-8.768-18.354-13.688-1.878.1-3.639,1.173-5.268,2.079-.353,2.1-2.578,3.5-2.26,5.738a.527.527,0,0,1-.354.617c-2.193-.729.777-4.412,1.311-5.681-1.165,1.055-7.752,1.522-6.106-.574,3.941,1.918,7.758-2.184,11.576-3.05-6.281-4.959-11.825-9.263-18-13.244a8.879,8.879,0,0,0-3.771,1.146c-1.115,1.447-.235,3.438-.858,4.942-.394.614-1.035,2.168-1.81,1.386a.5.5,0,0,1,.033-.621c1.577-1.256.633-3.286,1.181-4.946-.814,1.033-7.968,2.375-6.1.137,3.529,1.121,6.659-2.193,9.966-2.913-3.883-2.581-10.628-5.992-15.144-5.446-.813-.164-2.179.811-2.711.013.1-1.388,2.938-.9,4.045-1.062-.26-1.042-1.434-1.692-1.665-2.649.941-1.458,2.465,1.915,2.8,2.722a21.314,21.314,0,0,1,6.375,1.81c-1.027-3.355-.572-3.8-3.1-5.756a.49.49,0,0,1,.629-.506c3.174.894,2.467,4.829,4,6.981a106.89,106.89,0,0,1,13.654,8.683c-1.654-4.1,1.687-8.669-1.548-11.873a.514.514,0,0,1,.742-.432c2.5,1.374,1.667,4.582,1.488,6.864,1.617-1.156,2.142-3.7,4.38-4.192.625-.3,1.039.742.382.953-2.252.45-2.565,3.758-4.851,4.354a9.422,9.422,0,0,0,.882,5.207,1.177,1.177,0,0,1,.231.376c7.3,5.422,12.734,10.018,19.68,15.281-1.52-5.748,1.315-13.813-3.815-18.006a.54.54,0,0,1,.728-.49c2.573.961,3.156,5.471,3.466,7.848,1.982-.809,3.006-2.636,3.819-4.381,2.535.474-2.4,5.282-3.7,5.5.489,3.459-.893,7.919,1.319,10.735a96.166,96.166,0,0,0,12.979,8.789,10.974,10.974,0,0,0-.653-5.787c2.03-1.514,1.93,5.32,1.619,6.34,1.107.622,2.041,1.126,3,1.615a2.018,2.018,0,0,1-.181.547c-.139.1-.289.209-.435.306Z" transform="translate(-337.914 -503.07)"/></g></g><g transform="translate(324.933 175.478)"><path class="a" d="M444.736,372.388a28.346,28.346,0,0,0-5.458-1.963c-2.122,8.111-11.893-2.37-19.09,3.986,4.3-4.556,14.629-13.794,19.016-4.907a28.857,28.857,0,0,1,4.115,1.3q-3.4-3.9-6.448-8.132a32.367,32.367,0,0,0-6.158-2.266c-2.115,8.134-11.842-2.368-19.09,4,4.3-4.556,14.629-13.794,19.017-4.907a28.665,28.665,0,0,1,5.252,1.784q-2.839-4.083-5.331-8.442a28.144,28.144,0,0,0-6-2.225c-2.116,8.133-11.842-2.369-19.09,4,4.3-4.556,14.631-13.8,19.017-4.906a28.7,28.7,0,0,1,5.344,1.827c-2.4-4.294-3.779-9.293-8.673-11.395-4.019,7.377-10.6-5.647-19.073-1.441,5.339-3.42,17.383-9.3,19.23.516a29.055,29.055,0,0,1,3.7,2.519c-2.755-5.5-3.166-12.492-8.717-16.1-4.9,6.8-9.626-7.17-18.543-4.229,4.332-2.426,9.611-4.863,14.483-2.77,2.056.935,4.821,3.042,4.329,6.1a29.857,29.857,0,0,1,3.468,3.231q-1.583-5.353-2.685-10.876a32.454,32.454,0,0,0-4.393-4.93c-5.183,6.564-9.256-7.691-18.267-5.216,4.438-2.155,9.812-4.34,14.547-2.007,2,1.045,4.659,3.3,4.028,6.338a30.152,30.152,0,0,1,3.694,3.909c-1.29-6.133-.912-9.227-2.434-15.939-7.187,1.712-3.267-12.463-11.579-15.5,6.554,1.411,17.644,6.433,12.625,14.728,1.033,3.959,1.076,8.144,1.751,12.169a38.554,38.554,0,0,1,1.863-4.839c-2.056-2.425-.34-6,1.193-8.013,3.365-4.3,9.071-5.154,14.17-5.384-8.991,2.045-7.7,16.479-14.723,13.919-3.483,5.548-1.282,11.631.174,17.463a38.708,38.708,0,0,1,2.182-6c-1.609-2.432.041-5.858,1.509-7.844,3.289-4.343,8.83-5.368,13.895-5.679-8.884,2.27-7.99,17.51-14.829,14.16a50.074,50.074,0,0,0-2.381,6.806,114.159,114.159,0,0,0,3.652,11.047,38.741,38.741,0,0,1,2.063-5.578c-1.6-2.432.045-5.854,1.512-7.839,3.289-4.344,8.83-5.369,13.895-5.68-8.886,2.273-7.985,17.5-14.825,14.164a36.948,36.948,0,0,0-2.161,6.2q2.043,5.167,4.548,10.073a38.653,38.653,0,0,1,2.223-6.156c-1.61-2.432.041-5.858,1.508-7.844,3.29-4.343,8.831-5.368,13.895-5.679-8.884,2.27-7.989,17.509-14.829,14.16-3.959,7.442-.973,8.765,2.75,15.184a38.169,38.169,0,0,1,2.241-6.248c-1.581-2.4.045-5.775,1.491-7.733,3.245-4.284,8.711-5.3,13.708-5.6-8.735,2.208-7.885,17.262-14.625,13.973a37.017,37.017,0,0,0-2.241,6.522c1.782,2.717,3.692,5.333,5.7,7.863a38.673,38.673,0,0,1,2.192-6.04c-1.61-2.432.041-5.858,1.508-7.844,3.29-4.344,8.83-5.369,13.895-5.68-8.885,2.273-7.985,17.5-14.825,14.164a36.991,36.991,0,0,0-2.157,6.183,103.817,103.817,0,0,0,37.295,29.215c.624.288.184,1.378-.441,1.089A104.464,104.464,0,0,1,444.736,372.388Z" transform="translate(-394.687 -283.738)"/></g><g transform="translate(349.224 135.916)"><g transform="translate(23.147 20.26)"><path class="c" d="M543.173,227.593c-14.4,41.747,3.447,65.638-10.5,105.479H635.84c-20.044-36.645-.175-44.554-15.08-101.68Z" transform="translate(-532.672 -227.593)"/></g><g class="d" transform="translate(40.167 57.837)"><path class="e" d="M647.45,347.047s-.476,8.658-8.191,13.157-8.325,7.29-8.057,11.587,6.7,22.157,6.7,22.157l-49.466-1.88c30.652-25.6-3.716-32.555-6.246-48.283-.4-9.9,17.019-6.223,17.019-6.223Z" transform="translate(-582.179 -336.894)"/></g><g transform="translate(0 1.821)"><g transform="translate(37.416 105.932)"><path class="b" d="M637.961,484.947,610.007,527.83l-35.832-39.406a214.7,214.7,0,0,1,22.689-6.333h26.52C626.126,482.5,633.455,483.863,637.961,484.947Z" transform="translate(-574.175 -482.091)"/></g><g transform="translate(0 108.788)"><path class="f" d="M611.445,591.479l-145.989,1.811s-1.564-69.826,6.9-82.878c5.38-7.941,25.746-15.224,37.561-18.9l28.676,41.773,26.328-40.392,1.627-2.491a.016.016,0,0,1,.014.005c12.941,2.357,33.747,14.959,39.135,22.268C612.907,522.766,611.445,591.479,611.445,591.479Z" transform="translate(-465.342 -490.398)"/></g><g class="d" transform="translate(31.084 108.794)"><path class="e" d="M622.536,521.263l6.269,8.756-29.557,17.654-32.209-17.654,7.1-8.967-18.384-15.513,11.267-13.384c.729-.25,1.544-.415,2.221-.636l28.676,41.773L624.25,492.9l1.641-2.486q1.44.331,2.947.705l12.49,14.419Z" transform="translate(-555.759 -490.414)"/></g><g transform="translate(69.916 170.895)"><g transform="translate(2.542)"><g class="d"><path class="e" d="M676.1,675.483c.026-5.908,9.01-5.907,9.035,0C685.113,681.391,676.13,681.39,676.1,675.483Z" transform="translate(-676.104 -671.052)"/></g><g class="d" transform="translate(0 15.134)"><path class="e" d="M676.1,719.5c.026-5.908,9.01-5.908,9.035,0C685.113,725.411,676.13,725.411,676.1,719.5Z" transform="translate(-676.104 -715.072)"/></g></g><path class="b" d="M668.711,675.483c.027-5.908,9.01-5.907,9.036,0C677.72,681.391,668.737,681.39,668.711,675.483Z" transform="translate(-668.711 -671.052)"/><g transform="translate(0 15.134)"><path class="b" d="M668.711,719.5c.027-5.908,9.01-5.908,9.036,0C677.72,725.411,668.737,725.411,668.711,719.5Z" transform="translate(-668.711 -715.072)"/></g></g><g transform="translate(33.818 108.788)"><path class="a" d="M643.227,505.528,631.094,490.4,605,527.309l-30.533-35.8-10.754,14.02,19.2,15.388-7.067,9.262,28.938,14.857,26.313-14.857-7.067-9.262Z" transform="translate(-563.71 -490.398)"/></g><g transform="translate(54.187 105.807)"><path class="a" d="M628.877,481.852c-2.858,1.3-5.451,2.623-5.918,4.137,2.386,7.267,7.342,13.076,14.185,17.814a11.879,11.879,0,0,0,5.5-7.941,14.426,14.426,0,0,0,6.123,7.941q10.193-8.479,12.511-19.784C657.531,480.383,633.619,482.27,628.877,481.852Z" transform="translate(-622.959 -481.726)"/></g><g transform="translate(60.105 79.364)"><path class="g" d="M666.457,432.267c-.924,14.185-22.369,20.911-26.284-.888,1.027-5.12,4.153-21.72,5.112-26.568l17.678.36.11.849Z" transform="translate(-640.173 -404.811)"/><g transform="translate(3.715 0.202)"><path class="h" d="M673.549,432.653a13.586,13.586,0,0,1-1.368,5.26c-3.313-12.758-4.254-26.378-21.2-25.267l1.392-7.248,17.679.36.115.648Z" transform="translate(-650.98 -405.398)"/></g></g><g transform="translate(28.427)"><g transform="translate(0 41.863)"><path class="g" d="M563.17,303.419l4.5,14.554a.9.9,0,0,0-.454-.027l-.027-.08c-22.828-.868-24.544-24.7-8.912-21.911C558.855,298.726,561.267,301.084,563.17,303.419Z" transform="translate(-548.029 -295.728)"/></g><g transform="translate(72.775 43.847)"><path class="g" d="M761.427,323.5c-.55.14-1.081.2-1.714.319.08-.226,2.6-13.066,2.724-13.694a44.248,44.248,0,0,0,4-8.047C779.995,297.81,783.352,318.307,761.427,323.5Z" transform="translate(-759.713 -301.499)"/></g><g transform="translate(8.552 0.336)"><path class="g" d="M647.182,216.776c-1.525,38.276-44.513,59.526-67.358,21.542C546.706,177.4,642.977,142.985,647.182,216.776Z" transform="translate(-572.903 -174.937)"/></g><g transform="translate(21.954 41.68)"><g transform="translate(17.398 23.089)"><path class="i" d="M662.5,362.881c5.586,2.7,10.073,2.248,15.536-.526C675.422,368.351,665.467,369.015,662.5,362.881Z" transform="translate(-662.496 -362.355)"/></g><g transform="translate(0.722 9.821)"><path class="j" d="M613.992,325.77c-.156-2.569,7.866-2.724,7.808-.151C621.956,328.188,613.934,328.343,613.992,325.77Z" transform="translate(-613.989 -323.764)"/></g><g transform="translate(37.694 9.106)"><path class="j" d="M721.535,323.689c-.157-2.569,7.866-2.725,7.808-.151C729.5,326.107,721.477,326.262,721.535,323.689Z" transform="translate(-721.532 -321.683)"/></g><g transform="translate(0 0.631)"><path class="k" d="M611.889,301.9c.736-6.207,12.848-6.689,13.626-.263C621.8,298.5,615.57,298.927,611.889,301.9Z" transform="translate(-611.889 -297.031)"/></g><g transform="translate(32.582)"><path class="k" d="M706.661,300.069c.736-6.207,12.848-6.689,13.626-.263C716.577,296.662,710.343,297.093,706.661,300.069Z" transform="translate(-706.661 -295.196)"/></g></g><g transform="translate(21.083)"><path class="h" d="M635.123,173.963c-.607-.017-1.2.036-1.8.052,22.661,1.329,38.757,27.1,33.116,50.676l-2.484-18.145L651.273,188.6l-12.778-5.237H617.038l-7.684,11.817c16.952-6.93,37.546-3.7,46.375,20.811,2.483,5.083,5.137,9.728,8.613,12.993-5.908,20.536-18.108,29.341-32.66,28.856,14.94,1.481,28.893-9.413,35.488-24.4a2.955,2.955,0,0,0,.465.012l-.115-.838C679,207.792,661.888,173.885,635.123,173.963Z" transform="translate(-609.354 -173.959)"/></g></g><g transform="translate(90.271 172.072)"><path class="b" d="M757.713,679.523h-27.7c-2.8.041-2.8-5.089,0-5.049h27.7C760.51,674.434,760.511,679.564,757.713,679.523Z" transform="translate(-727.918 -674.474)"/></g></g><g transform="translate(31.764 0)"><path class="c" d="M575.481,191.7c-2.283,13.831-7.914,20.329-7.914,35.463,0,0-15-21-7.947-38.245,5.013-12.258,19.447-22.692,37.463-20,36.875-5.22,47.951,30.039,37.469,57.857C619.32,213.632,616.617,169.741,575.481,191.7Z" transform="translate(-557.734 -168.661)"/></g><g transform="translate(25.84 0.394)"><g transform="translate(2.058 53.12)"><path class="b" d="M583.616,347.657a2.249,2.249,0,0,0-2.741,1.548c-19.7,5.54-35.57-4.333-30.846-24.259l-2.532-.626c-5.81,22.675,14.619,33.517,34.256,27.352C584.59,353.634,586.941,348.576,583.616,347.657Z" transform="translate(-546.49 -324.32)"/></g><g class="d" transform="translate(4.109 53.534)"><path class="l" d="M553.085,325.525c-1.318,6.139-.546,11.788,2.137,16.129-2.27-4.4-2.757-9.949-1.28-15.916Z" transform="translate(-552.456 -325.525)"/><g transform="translate(0.473 17.377)"><path class="l" d="M589.388,382.163a2.249,2.249,0,0,1-3.471,2.317c-11.615,3.227-25.867,2.114-32.087-8.409,5.8,11.5,20.688,12.944,32.737,9.56C588.76,387.255,591.4,383.949,589.388,382.163Z" transform="translate(-553.831 -376.071)"/></g></g><g transform="translate(10.931)"><path class="m" d="M644.489,215.645h-4.348c6.366-55.424-69.519-55.384-63.138,0h-4.348C566.166,154.507,650.993,154.549,644.489,215.645Z" transform="translate(-572.3 -169.807)"/></g><g transform="translate(10.931)"><path class="m" d="M644.489,215.645h-4.348c6.366-55.424-69.519-55.384-63.138,0h-4.348C566.166,154.507,650.993,154.549,644.489,215.645Z" transform="translate(-572.3 -169.807)"/></g><g transform="translate(10.931)"><path class="b" d="M644.489,215.645h-4.348c6.366-55.424-69.519-55.384-63.138,0h-4.348C566.166,154.507,650.993,154.549,644.489,215.645Z" transform="translate(-572.3 -169.807)"/></g><g class="d" transform="translate(11.285 3.241)"><path class="l" d="M608.02,179.236c-22.911.175-34.2,20.762-31.569,41.713h-3.12v.883h4.348V211.688c-.749-24.754,29.534-40.48,49.335-26.08A31.4,31.4,0,0,0,608.02,179.236Z" transform="translate(-573.331 -179.236)"/><g transform="translate(56.282 2.889)"><path class="l" d="M737.043,187.64c12.176,8.321,15.559,24.419,14.324,38.824h-3.12v.883h4.348C753.9,212.216,750.132,195.953,737.043,187.64Z" transform="translate(-737.043 -187.64)"/></g></g><g transform="translate(9.475 31.959)"><path class="n" d="M572.05,272.913A3.925,3.925,0,0,1,568.137,269c-.351-2.851.537-6.253,3.913-6.229,3.4-.046,4.265,3.469,3.913,6.23A3.913,3.913,0,0,1,572.05,272.913Z" transform="translate(-568.066 -262.769)"/><g class="d" transform="translate(1.155 0.234)"><path class="l" d="M575.574,263.449c1.3,1.137,1.092,3.434,1.083,5.016a3.9,3.9,0,0,1-5.233,3.679,3.936,3.936,0,0,0,6.742-2.7C578.346,267.185,578.117,264.2,575.574,263.449Z" transform="translate(-571.424 -263.449)"/></g></g><g transform="translate(76.789 31.959)"><path class="n" d="M767.848,272.913h0c3.4.046,4.266-3.469,3.913-6.231a3.913,3.913,0,1,0-7.826,0C763.584,269.536,764.472,272.938,767.848,272.913Z" transform="translate(-763.864 -262.769)"/><g class="d" transform="translate(0.024 0.234)"><path class="l" d="M766.574,263.449c-1.305,1.136-1.092,3.435-1.084,5.016a3.9,3.9,0,0,0,5.234,3.679,3.936,3.936,0,0,1-6.742-2.7C763.8,267.185,764.031,264.2,766.574,263.449Z" transform="translate(-763.934 -263.449)"/></g></g><g transform="translate(0 38.264)"><g transform="translate(0.027 3.839)"><path class="n" d="M540.613,302.5a10.328,10.328,0,0,0,10.23,11.2V292.275A10.23,10.23,0,0,0,540.613,302.5Z" transform="translate(-540.582 -292.275)"/></g><g class="d" transform="translate(0 13.251)"><path class="l" d="M540.6,319.651c-.815,6.213,3.785,12.073,10.195,12.02v-2.609A10.228,10.228,0,0,1,540.6,319.651Z" transform="translate(-540.504 -319.651)"/></g><g transform="translate(5.656)"><path class="f" d="M564.223,281.109a7.316,7.316,0,0,0-7.263,7.268c0,.436,0,16,0,16.125a7.263,7.263,0,0,0,14.525-.12V288.373A7.263,7.263,0,0,0,564.223,281.109Z" transform="translate(-556.956 -281.107)"/></g><g class="d" transform="translate(7.36 0.347)"><path class="l" d="M569.688,282.118c3.105,2.608,1.215,17.14,1.7,20.678a7.3,7.3,0,0,1-9.476,6.917,7.261,7.261,0,0,0,12.825-4.668V289.036A7.265,7.265,0,0,0,569.688,282.118Z" transform="translate(-561.914 -282.118)"/></g></g><g transform="translate(74.624 37.851)"><g transform="translate(9.902 3.838)"><path class="n" d="M786.371,291.07V312.5C799.911,312.49,799.9,291.079,786.371,291.07Z" transform="translate(-786.371 -291.07)"/></g><g class="d" transform="translate(9.902 13.249)"><path class="l" d="M796.565,318.446c.815,6.213-3.785,12.073-10.194,12.02v-2.608A10.228,10.228,0,0,0,796.565,318.446Z" transform="translate(-786.371 -318.446)"/></g><g transform="translate(0.005)"><path class="f" d="M764.844,279.907a7.263,7.263,0,0,0-7.263,7.264v16.01a7.263,7.263,0,0,0,14.526,0v-16.01A7.263,7.263,0,0,0,764.844,279.907Z" transform="translate(-757.581 -279.907)"/></g><g class="d" transform="translate(0 0.345)"><path class="l" d="M762.624,280.912c-3.105,2.608-1.215,17.139-1.7,20.677a7.3,7.3,0,0,0,9.475,6.918c-4,5.138-13.062,1.966-12.825-4.668V287.83A7.265,7.265,0,0,1,762.624,280.912Z" transform="translate(-757.568 -280.912)"/></g></g><g transform="translate(37.769 72.269)"><path class="o" d="M650.556,383.589c1.693-6.194,11.123-3.661,9.485,2.547C658.347,392.331,648.918,389.8,650.556,383.589Z" transform="translate(-650.365 -380.022)"/></g><g class="d" transform="translate(37.773 75.758)"><path class="l" d="M659.419,393.547c-2.76,4.012-9.453,1.354-8.83-3.377-1.836,6.789,8.858,8.791,9.6,1.8A4.88,4.88,0,0,1,659.419,393.547Z" transform="translate(-650.378 -390.17)"/></g><g class="d" transform="translate(39.353 73.233)"><path class="l" d="M655.705,384.009a.285.285,0,0,1,.57,0A.285.285,0,0,1,655.705,384.009Zm1.46-.48a.285.285,0,0,0,0-.57A.285.285,0,0,0,657.165,383.529Zm1.674-.134a.285.285,0,0,0,0-.57A.285.285,0,0,0,658.839,383.395Zm1.157.516a.285.285,0,0,0,0-.57A.285.285,0,0,0,660,383.911Zm-.285.953a.285.285,0,0,0,0-.57A.285.285,0,0,0,659.711,384.864Zm1.348.1a.285.285,0,0,0,0-.57A.285.285,0,0,0,661.059,384.966Zm.217,1.251a.285.285,0,0,0,0-.569A.285.285,0,0,0,661.276,386.217Zm.353,1.263a.285.285,0,0,0,0-.569A.285.285,0,0,0,661.629,387.481Zm-1.206-.167a.285.285,0,0,0,0-.57A.285.285,0,0,0,660.423,387.313Zm.636,1.447a.285.285,0,0,0,0-.57A.285.285,0,0,0,661.059,388.76Zm-1.287.569a.285.285,0,0,0,0-.569A.285.285,0,0,0,659.772,389.329Zm-1.346.8a.285.285,0,0,0,0-.57A.285.285,0,0,0,658.426,390.126Zm-1.261-1.14a.285.285,0,0,0,0,.57A.285.285,0,0,0,657.165,388.986Zm-1.419.058a.285.285,0,0,0,0-.569A.285.285,0,0,0,655.746,389.044Zm3.965-3a.285.285,0,0,0,0-.569A.285.285,0,0,0,659.711,386.045Zm-1.228.774a.285.285,0,0,0,0-.57A.285.285,0,0,0,658.483,386.819Zm-1.238.624a.285.285,0,0,0,0-.57A.285.285,0,0,0,657.245,387.442Zm-1.994.038a.285.285,0,0,0,0-.569A.285.285,0,0,0,655.251,387.481Zm1.228.709a.285.285,0,0,0,0-.57A.285.285,0,0,0,656.479,388.19Zm1.612.383a.285.285,0,0,0,0-.57A.285.285,0,0,0,658.091,388.573Zm1.336-.632a.285.285,0,0,0,0-.569A.285.285,0,0,0,659.427,387.94Zm-.766-2.4a.285.285,0,0,0,0-.57A.285.285,0,0,0,658.661,385.536Zm-.411-1.242a.285.285,0,0,0,0-.57A.285.285,0,0,0,658.249,384.294Zm-1.484.757a.285.285,0,0,0,0-.57A.285.285,0,0,0,656.765,385.051Zm.686,1.054a.285.285,0,0,0,0-.57A.285.285,0,0,0,657.45,386.106Zm-1.345.637a.285.285,0,0,0,0-.57A.285.285,0,0,0,656.106,386.743Zm-.57-1.207a.285.285,0,0,0,0-.57A.285.285,0,0,0,655.536,385.536Z" transform="translate(-654.973 -382.825)"/></g></g></g><g transform="translate(360.989 271.445)"><g transform="translate(0.024 0.13)"><path class="b" d="M16.212,0H102.7a16.211,16.211,0,0,1,16.211,16.211V60.268A16.211,16.211,0,0,1,102.7,76.479H16.212A16.212,16.212,0,0,1,0,60.267V16.212A16.212,16.212,0,0,1,16.212,0Z"/></g><g transform="translate(0 0)"><path class="a" d="M604.978,563.01c-3.82,66.975-54.132,68.2-105.391,65.559.259,3.308-1.291,11.013,4.012,10.92H614.483a4.229,4.229,0,0,0,4.012-4.416V567.426C618.542,560.766,608.89,563.558,604.978,563.01Z" transform="translate(-499.563 -562.881)"/></g><g transform="translate(53.352 36.236)"><path class="a" d="M654.752,674.235c.035-7.938,12.217-7.937,12.251,0C666.968,682.174,654.786,682.173,654.752,674.235Z" transform="translate(-654.752 -668.282)"/></g></g><g transform="translate(482.269 165.83)"><path class="a" d="M1026.951,433.886a.8.8,0,0,1-.8-.8c.37-1.523-.964-6.575.672-6.9a.808.808,0,0,1,.83.775C1027.363,428.485,1028.656,433.536,1026.951,433.886Zm-.417-12.191c-1.589-.322-.8-5.287-1.32-6.8a.8.8,0,0,1,1.6-.166C1026.625,416.223,1028.3,421.4,1026.534,421.695Zm-1.254-12.135c-1.55-.4-1.1-5.159-1.732-6.693a.8.8,0,0,1,1.583-.276C1025.043,404.054,1027.126,409.306,1025.281,409.56Zm-2.091-12.019c-1.526-.478-1.394-5.012-2.137-6.558a.8.8,0,0,1,1.56-.384C1022.618,392.023,1025.122,397.313,1023.189,397.541Zm-2.923-11.844c-1.552-.636-1.655-4.8-2.533-6.4a.8.8,0,0,1,1.529-.493C1019.355,380.25,1022.3,385.382,1020.267,385.7Zm-3.747-11.629c-1.594-.779-1.9-4.584-2.924-6.22a.8.8,0,0,1,1.491-.6C1015.272,368.649,1018.651,373.754,1016.52,374.067Zm-4.553-11.351c-1.71-1.01-2.1-4.282-3.293-6a.8.8,0,0,1,1.446-.7C1010.39,357.364,1014.2,362.395,1011.967,362.716Zm-5.329-11c-1.789-1.124-2.307-4.04-3.644-5.757a.8.8,0,0,1,1.394-.8C1004.742,346.509,1008.969,351.262,1006.638,351.716Zm-6.075-10.6c-1.8-1.105-2.541-3.844-3.977-5.491a.8.8,0,0,1,1.335-.893C998.359,336.025,1003,340.633,1000.563,341.115Zm-6.79-10.151c-1.819-1.086-2.766-3.647-4.288-5.2a.8.8,0,0,1,1.27-.982C991.262,326,996.321,330.437,993.773,330.964Zm-7.469-9.657c-1.837-1.056-2.969-3.423-4.578-4.9a.8.8,0,0,1,1.2-1.067C983.528,316.572,988.928,320.6,986.3,321.307Zm-8.111-9.118c-1.86-1.025-3.164-3.2-4.845-4.574-.753-.717.39-1.889,1.124-1.147C975.135,307.617,980.925,311.423,978.193,312.189Zm-8.712-8.539c-1.883-.984-3.339-2.957-5.091-4.232a.8.8,0,0,1-.089-1.132c1.455-1.029,4.317,3.164,5.722,3.968A.809.809,0,0,1,969.481,303.65Zm-9.272-7.92c-1.905-.933-3.493-2.7-5.312-3.873a.8.8,0,0,1-.166-1.124c1.281-1.169,4.589,2.89,5.979,3.565A.808.808,0,0,1,960.209,295.73Zm-9.79-7.262c-.91-.533-6.785-3.652-5.75-4.61,1.2-1.255,4.773,2.566,6.206,3.145A.808.808,0,0,1,950.419,288.468Zm-10.26-6.57c-1.954-.813-3.759-2.173-5.676-3.113a.8.8,0,0,1,.771-1.409C936.137,278.193,943.293,280.751,940.159,281.9Zm-10.682-5.844c-1.113-.671-6.907-2.468-6.213-3.78,1.013-1.408,5.081,1.884,6.574,2.258A.808.808,0,0,1,929.477,276.055Zm-11.053-5.09c-1.2-.687-6.932-1.911-6.4-3.341.912-1.474,5.2,1.526,6.711,1.8A.807.807,0,0,1,918.424,270.965Zm-11.391-4.315c-1.291-.687-6.932-1.366-6.579-2.894.809-1.535,5.3,1.163,6.837,1.33A.806.806,0,0,1,907.032,266.649Zm-11.681-3.517c-1.375-.663-6.875-.824-6.71-2.431.7-1.588,5.364.791,6.914.85A.807.807,0,0,1,895.351,263.132Zm-11.9-2.695c-1.408-.6-6.859-.335-6.807-1.96.591-1.632,5.411.417,6.956.368A.805.805,0,0,1,883.454,260.437ZM871.4,258.577c-2.03-.227-4.093-.452-6.137-.619a.8.8,0,0,1,.134-1.6C866.464,256.59,874.927,256.517,871.4,258.577Zm-12.156-1.023c-1.516-.445-6.65.639-6.9-1.012.356-1.7,5.409-.331,6.941-.593A.8.8,0,0,1,859.241,257.553Z" transform="translate(-852.339 -255.674)"/></g><g transform="translate(479.528 150.647)"><g transform="translate(0)"><path class="a" d="M1036.846,402.761a.8.8,0,0,1-.8-.794c.351-1.529-1.026-6.572.608-6.911,1.714.282.642,5.367,1,6.893A.8.8,0,0,1,1036.846,402.761Zm-.513-12.189c-1.587-.326-.817-5.281-1.342-6.8a.8.8,0,0,1,1.6-.168C1036.4,385.1,1038.107,390.28,1036.334,390.572Zm-1.279-12.134c-1.552-.4-1.1-5.172-1.72-6.7a.8.8,0,0,1,1.583-.27C1034.821,372.927,1036.9,378.183,1035.054,378.438ZM1033,366.411c-1.529-.47-1.37-5.037-2.1-6.575a.8.8,0,0,1,1.563-.371C1032.46,360.887,1034.927,366.182,1033,366.411Zm-2.821-11.871c-1.553-.623-1.61-4.831-2.464-6.43a.8.8,0,0,1,1.536-.471C1029.327,349.092,1032.2,354.222,1030.182,354.54Zm-3.58-11.667c-1.555-.689-1.86-4.665-2.82-6.261a.8.8,0,0,1,1.5-.568C1025.441,337.456,1028.7,342.562,1026.6,342.873Zm-4.32-11.414c-1.672-.942-2.031-4.377-3.161-6.071a.8.8,0,0,1,1.463-.663C1020.818,326.089,1024.479,331.142,1022.282,331.459Zm-5.032-11.116c-1.784-1.126-2.2-4.109-3.488-5.858a.8.8,0,0,1,1.418-.754C1015.5,315.109,1019.533,319.9,1017.249,320.342Zm-5.728-10.773c-1.8-1.114-2.424-3.944-3.8-5.625a.8.8,0,0,1,1.367-.843C1009.474,304.421,1013.9,309.1,1011.522,309.569Zm-6.406-10.385c-1.808-1.1-2.636-3.758-4.107-5.372a.8.8,0,0,1,1.311-.929C1002.785,294.152,1007.6,298.685,1005.115,299.184Zm-7.06-9.954c-1.824-1.075-2.838-3.564-4.39-5.1a.8.8,0,0,1,1.248-1.01C995.465,284.4,1000.609,288.561,998.055,289.23Zm-7.682-9.483c-1.843-1.048-3.025-3.361-4.653-4.814a.8.8,0,0,1,.047-1.135c1.569-.844,3.915,3.663,5.214,4.621A.809.809,0,0,1,990.373,279.747Zm-8.266-8.98c-.845-.144-1.305-1.141-1.962-1.643-.738-1.224-3.743-2.491-2.958-4.008,1.492-.859,2.89,2.135,4.094,2.872C981.972,268.669,984.019,270.314,982.107,270.767Zm-8.809-8.446c-1.886-.978-3.356-2.929-5.116-4.2a.8.8,0,0,1-.1-1.131c1.351-1.085,4.4,3.172,5.748,3.931A.809.809,0,0,1,973.3,262.321Zm-9.32-7.872c-1.911-.935-3.508-2.7-5.321-3.869a.8.8,0,0,1-.166-1.124c1.28-1.168,4.585,2.881,5.987,3.559A.809.809,0,0,1,963.978,254.449Zm-9.8-7.265c-.9-.526-6.787-3.677-5.746-4.631,1.2-1.249,4.771,2.588,6.2,3.167A.808.808,0,0,1,954.175,247.183Zm-10.25-6.622c-1.022-.629-6.835-3.088-5.979-4.255,1.119-1.324,4.928,2.277,6.394,2.763A.808.808,0,0,1,943.925,240.561Zm-10.653-5.951c-1.109-.67-6.9-2.569-6.189-3.867,1.032-1.392,5.059,1.955,6.558,2.35A.808.808,0,0,1,933.272,234.61Zm-11.012-5.262c-1.189-.691-6.931-2.053-6.371-3.469.985-1.316,2.951.648,4.208.859C921.08,227.141,924.751,228.356,922.26,229.348Zm-11.321-4.554c-1.274-.7-6.922-1.545-6.525-3.058.847-1.512,5.26,1.3,6.8,1.5A.807.807,0,0,1,910.938,224.794Zm-11.586-3.823c-1.308-.657-6.95-1.081-6.658-2.634.753-1.564,5.342.959,6.884,1.061A.806.806,0,0,1,899.353,220.972Zm-11.81-3.07c-1.384-.628-6.875-.582-6.763-2.2.653-1.608,5.394.613,6.939.615A.806.806,0,0,1,887.543,217.9Zm-11.983-2.3c-2.034-.3-4.1-.619-6.142-.868a.8.8,0,0,1,.2-1.593C870.677,213.435,879.068,213.64,875.56,215.6Zm-12.108-1.531c-1.446-.486-6.8.3-6.887-1.328.441-1.677,5.423-.079,6.961-.275A.8.8,0,0,1,863.452,214.068Zm-12.182-.76c-1.5-.416-6.632.752-6.906-.9.334-1.7,5.421-.416,6.931-.71A.8.8,0,0,1,851.27,213.307Z" transform="translate(-844.364 -211.509)"/></g></g><g transform="translate(505.413 125.959)"><g transform="translate(0 0)"><path class="p" d="M924.136,150.56c18.762-26.581,58.762.649,40.917,27.849C946.291,204.988,906.291,177.758,924.136,150.56Z" transform="translate(-919.658 -139.698)"/></g><g class="d" transform="translate(4.334 6.646)"><path class="e" d="M969.7,159.028c16.108,23.589-16.348,51.713-37.438,31.852C953.555,220.551,995.5,184.561,969.7,159.028Z" transform="translate(-932.265 -159.028)"/></g><g transform="translate(7.609 13.084)"><g transform="translate(13.13 12.599)"><path class="b" d="M980.495,214.714a4.549,4.549,0,0,1-.51-.311A1.514,1.514,0,0,1,980.495,214.714Z" transform="translate(-979.984 -214.403)"/></g><g transform="translate(9.551 0.733)"><path class="b" d="M975.83,192.647c8.344-.038,8.343-12.724,0-12.76C967.486,179.924,967.487,192.611,975.83,192.647Z" transform="translate(-969.573 -179.887)"/></g><g transform="translate(9.14 12.083)"><path class="b" d="M969.132,212.9c.054.069.113.139.173.208a6.369,6.369,0,0,1-.927.295A2.848,2.848,0,0,1,969.132,212.9Z" transform="translate(-968.377 -212.902)"/></g><g transform="translate(22.189 12.075)"><path class="b" d="M1006.669,213.072c-.113-.046-.226-.1-.336-.151l.033-.041A2.009,2.009,0,0,1,1006.669,213.072Z" transform="translate(-1006.333 -212.879)"/></g><g transform="translate(8.149 13.376)"><path class="b" d="M979.006,216.83c-2.332-1.123-4.585,3.868-9.694.108-2.421-1.15-3.8,2.566-3.812,4.794a1.957,1.957,0,0,0,1.938,2.124h11.922C982.969,223.4,980.89,217.972,979.006,216.83Z" transform="translate(-965.495 -216.661)"/></g><g transform="translate(21.292)"><path class="b" d="M1013.793,184.133a6.416,6.416,0,0,1-9.172,5.739,8,8,0,0,0-.9-10.941C1007.71,175.916,1013.953,179.075,1013.793,184.133Z" transform="translate(-1003.725 -177.755)"/><g transform="translate(3.048 12.601)"><path class="b" d="M1021.375,219.52a1.957,1.957,0,0,1-1.939,2.123h-5.908a7.3,7.3,0,0,0-.938-5.608c2.8.785,4.765-2.464,6.491-1.421A5.961,5.961,0,0,1,1021.375,219.52Z" transform="translate(-1012.591 -214.407)"/></g></g><g transform="translate(0 0.022)"><g transform="translate(1.413)"><path class="b" d="M952.623,184.909a7.887,7.887,0,0,0,1.933,5.179c-12.558,3.351-10.768-16.807.988-11.315A7.9,7.9,0,0,0,952.623,184.909Z" transform="translate(-945.903 -177.818)"/></g><g transform="translate(0 12.687)"><path class="b" d="M948.4,220.458a3.64,3.64,0,0,0,.216,1.392c-1.749-.287-7.117,1.111-6.817-2.123a6.022,6.022,0,0,1,2.072-4.766c1.819-1.067,3.427,1.8,5.641,1.322A7.9,7.9,0,0,0,948.4,220.458Z" transform="translate(-941.792 -214.721)"/></g><g transform="translate(13.13 12.577)"><path class="b" d="M980.495,214.714a4.549,4.549,0,0,1-.51-.311A1.514,1.514,0,0,1,980.495,214.714Z" transform="translate(-979.984 -214.403)"/></g></g></g></g><g transform="translate(620.518 193.966)"><path class="p" d="M1258.949,348.375c18.762-26.58,58.762.649,40.916,27.849C1281.1,402.8,1241.1,375.574,1258.949,348.375Z" transform="translate(-1254.471 -337.514)"/><g class="d" transform="translate(4.335 6.646)"><path class="e" d="M1304.517,356.844c16.108,23.59-16.348,51.713-37.438,31.852C1288.368,418.368,1330.315,382.377,1304.517,356.844Z" transform="translate(-1267.079 -356.844)"/></g><g transform="translate(8.483 7.493)"><g transform="translate(0 6.549)"><path class="b" d="M1289.8,378.363c-7.58-.221-12.544,8.826-8.446,15.1-1.264.936-1.763,3.043-2.2,5.236a13.171,13.171,0,0,1,6.256-1.54C1300.355,403.445,1306,379.369,1289.8,378.363Z" transform="translate(-1279.146 -378.359)"/></g><g transform="translate(11.4)"><path class="b" d="M1331.75,379.629c-4.868-3.068-5.018-1.445-9.509-.579a11.236,11.236,0,0,0-9.936-14.425c6.438-11.792,24.059-1.915,17.24,9.768C1331.033,375.279,1331.558,377.264,1331.75,379.629Z" transform="translate(-1312.305 -359.31)"/></g><g transform="translate(5.498 15.242)"><path class="p" d="M1295.138,404.727a1.1,1.1,0,0,1,2.2,0A1.1,1.1,0,0,1,1295.138,404.727Z" transform="translate(-1295.138 -403.646)"/></g><g transform="translate(9.179 15.242)"><path class="p" d="M1305.846,404.727a1.1,1.1,0,0,1,2.2,0A1.1,1.1,0,0,1,1305.846,404.727Z" transform="translate(-1305.846 -403.646)"/></g><g transform="translate(12.861 15.242)"><path class="p" d="M1316.555,404.727a1.1,1.1,0,0,1,2.2,0A1.1,1.1,0,0,1,1316.555,404.727Z" transform="translate(-1316.555 -403.646)"/></g></g></g><g transform="translate(553.255 180.933)"><path class="p" d="M1062.368,308.208c14.861-21.054,46.544.514,32.409,22.058C1079.916,351.319,1048.233,329.751,1062.368,308.208Z" transform="translate(-1058.821 -299.604)"/><g transform="translate(5.187 4.674)"><g transform="translate(25.369 12.991)"><path class="b" d="M1147.7,351.765a.8.8,0,0,1,1.6,0A.8.8,0,0,1,1147.7,351.765Z" transform="translate(-1147.7 -350.985)"/></g><g transform="translate(1.896 13.141)"><path class="b" d="M1079.422,352.2a.8.8,0,0,1,1.6,0A.8.8,0,0,1,1079.422,352.2Z" transform="translate(-1079.422 -351.423)"/></g><g transform="translate(13.828 24.29)"><path class="b" d="M1114.131,384.633a.8.8,0,0,1,1.6,0A.8.8,0,0,1,1114.131,384.633Z" transform="translate(-1114.131 -383.853)"/></g><g transform="translate(20.062 3.889)"><path class="b" d="M1132.263,324.961a.463.463,0,0,1,.926,0A.463.463,0,0,1,1132.263,324.961Z" transform="translate(-1132.263 -324.51)"/></g><g transform="translate(24.443 8.222)"><path class="b" d="M1145.007,337.565a.463.463,0,0,1,.926,0A.463.463,0,0,1,1145.007,337.565Z" transform="translate(-1145.007 -337.115)"/></g><g transform="translate(19.901 23.195)"><path class="b" d="M1131.795,381.116a.463.463,0,0,1,.927,0A.463.463,0,0,1,1131.795,381.116Z" transform="translate(-1131.795 -380.666)"/></g><g transform="translate(8.076 22.91)"><path class="b" d="M1097.4,380.29a.463.463,0,0,1,.926,0A.463.463,0,0,1,1097.4,380.29Z" transform="translate(-1097.398 -379.839)"/></g><g transform="translate(3.979 18.418)"><path class="b" d="M1085.483,367.223a.463.463,0,0,1,.926,0A.463.463,0,0,1,1085.483,367.223Z" transform="translate(-1085.483 -366.773)"/></g><g transform="translate(4.086 7.759)"><path class="b" d="M1085.793,336.217a.463.463,0,0,1,.926,0A.463.463,0,0,1,1085.793,336.217Z" transform="translate(-1085.793 -335.767)"/></g><g transform="translate(8.201 3.64)"><path class="b" d="M1097.761,324.236a.463.463,0,0,1,.926,0A.463.463,0,0,1,1097.761,324.236Z" transform="translate(-1097.761 -323.785)"/></g><g transform="translate(14.018 1.458)"><path class="b" d="M1114.683,318.22a.8.8,0,0,1,1.6,0A.8.8,0,0,1,1114.683,318.22Z" transform="translate(-1114.683 -317.44)"/></g><g transform="translate(7.693 9.941)"><path class="b" d="M1102.569,349.879h-6.283c-.072-2.418,3.423-3.392,4.145-5.4-.113-1.261-1.95-1.01-1.893.308l-2.1-.169c.818-5.154,11.19-1.551,2.859,3.553h3.27Z" transform="translate(-1096.285 -342.113)"/><g transform="translate(6.963 0.099)"><path class="b" d="M1120.354,348.659h-3.815v-1.722l3.815-4.535h1.826v4.633h.946v1.624h-.946v1.409h-1.826Zm0-1.624v-2.372l-2.016,2.372Z" transform="translate(-1116.539 -342.402)"/></g></g><g transform="translate(22.948 18.857)"><path class="b" d="M1141.007,370.967c4.617,2.769,5.194,4.032,4.283-2.318-.256-1.767-3.514.926-4.233,1.042A.731.731,0,0,0,1141.007,370.967Z" transform="translate(-1140.657 -368.05)"/></g><g transform="translate(23.838 21.363)"><path class="b" d="M1145.581,376.708c-.289.381-.6.746-.919,1.1l-1.417-.955a13.829,13.829,0,0,0,.956-1.162A.858.858,0,0,1,1145.581,376.708Z" transform="translate(-1143.245 -375.339)"/></g><g transform="translate(22.732 23.361)"><path class="b" d="M1140.667,381.15l1.418.957c-.2.2-.411.4-.628.592l-1.429-.965C1140.247,381.547,1140.464,381.355,1140.667,381.15Z" transform="translate(-1140.028 -381.15)"/></g><path class="b" d="M1102.268,327.262a.2.2,0,0,1-.392,0c.147-8.209-8.131-14.947-16.125-13.1-20.607,5.261-7.4,35.468,10.347,23.415l1.44.971c-10.655,9.093-27.641-2.51-22.774-15.756C1080.1,307.764,1102.084,311.251,1102.268,327.262Z" transform="translate(-1073.907 -313.198)"/></g><g class="d" transform="translate(3.433 5.263)"><path class="e" d="M1098.461,314.914c12.864,21.613-9.453,42.322-29.654,25.23C1085.67,363.646,1118.9,335.138,1098.461,314.914Z" transform="translate(-1068.807 -314.914)"/></g></g><g transform="translate(621.329 269.776)"><g transform="translate(0)"><path class="p" d="M1260.377,566.632c14.861-21.054,46.544.514,32.409,22.059C1277.925,609.743,1246.242,588.175,1260.377,566.632Z" transform="translate(-1256.83 -558.028)"/></g><g class="d" transform="translate(3.433 5.264)"><path class="e" d="M1296.47,573.34c12.8,21.031-10.2,41.9-29.654,25.229C1283.678,622.071,1316.9,593.563,1296.47,573.34Z" transform="translate(-1266.816 -573.34)"/></g><g transform="translate(6.326 6.844)"><path class="b" d="M1301.164,590.58c-.5-16.254-24.2-17.12-25.91-.956C1274.31,607.453,1300.789,608.418,1301.164,590.58Zm-1.419-1.961a10.779,10.779,0,0,1,.15,1.136h-3.526a19.373,19.373,0,0,0-.438-3.273h3.205A11.294,11.294,0,0,1,1299.745,588.619Zm-4.521,2.166a18.851,18.851,0,0,1-.25,3.069h-2.438c.089-1.055.136-2.165.128-3.274h2.557C1295.222,590.649,1295.224,590.716,1295.224,590.786Zm-14.074,0c0-.069,0-.137,0-.205h2.557c-.008,1.109.039,2.219.128,3.274H1281.4A18.77,18.77,0,0,1,1281.15,590.786Zm10.5-.029c0,1.071-.051,2.109-.143,3.1h-2.816V590.58h2.958C1291.649,590.64,1291.65,590.7,1291.65,590.756Zm-6.926,0c0-.058,0-.117,0-.176h2.957v3.274h-2.816C1284.775,592.866,1284.724,591.827,1284.724,590.756Zm3.967-11.036a3.653,3.653,0,0,1,1.426,1.833h-1.426Zm-1.008,0v1.833h-1.426A3.659,3.659,0,0,1,1287.683,579.72Zm0,2.66v3.274h-2.561a19.325,19.325,0,0,1,.805-3.274Zm0,4.1v3.273h-2.943a31.982,31.982,0,0,1,.259-3.273Zm0,8.2v3.274h-2.117a24.053,24.053,0,0,1-.611-3.274Zm0,4.1v3.011c-.715-.353-1.365-1.442-1.874-3.011Zm1.008,3.011v-3.011h1.874C1290.057,600.351,1289.406,601.44,1288.691,601.793Zm0-3.838v-3.274h2.728a24.052,24.052,0,0,1-.611,3.274Zm0-8.2v-3.273h2.685a32.052,32.052,0,0,1,.259,3.273Zm0-4.1V582.38h1.756a19.314,19.314,0,0,1,.805,3.274Zm2.9-3.274h1.456a13.181,13.181,0,0,1,1.455,3.274h-2.2A23.6,23.6,0,0,0,1291.59,582.38Zm-.273-.827a10.508,10.508,0,0,0-.794-1.742,7,7,0,0,1,1.941,1.742Zm-5.464-1.742a10.488,10.488,0,0,0-.794,1.742h-1.146A7,7,0,0,1,1285.852,579.811Zm-1.068,2.569a23.639,23.639,0,0,0-.712,3.274h-2.2a13.2,13.2,0,0,1,1.455-3.274Zm-.825,4.1c-.127,1.046-.207,2.145-.236,3.273h-2.544a18.052,18.052,0,0,1,.472-3.273Zm-.04,8.2a27.356,27.356,0,0,0,.552,3.274h-1.821a15.067,15.067,0,0,1-1.094-3.274Zm.764,4.1a12.4,12.4,0,0,0,1.221,3.008,7.9,7.9,0,0,1-2.823-3.008Zm5.785,3.008a12.44,12.44,0,0,0,1.221-3.008h1.6A7.9,7.9,0,0,1,1290.469,601.79Zm1.433-3.835a27.456,27.456,0,0,0,.551-3.274h2.363a15.067,15.067,0,0,1-1.093,3.274Zm.748-8.2c-.03-1.128-.109-2.227-.236-3.273h2.308a18.041,18.041,0,0,1,.472,3.273Zm5.573-5.106c.2.327.382.659.55,1h-3.052a15.167,15.167,0,0,0-1.31-3.274h2A11.817,11.817,0,0,1,1298.225,584.649Zm-2.756-3.1h-1.554a10.133,10.133,0,0,0-1.371-1.689A11.621,11.621,0,0,1,1295.469,581.553Zm-14.008-.413a11.734,11.734,0,0,1,2.371-1.276,10.118,10.118,0,0,0-1.371,1.689h-1.555C1281.086,581.408,1281.272,581.271,1281.46,581.14Zm-3.448,3.739a11.739,11.739,0,0,1,1.951-2.5h2a15.155,15.155,0,0,0-1.31,3.274H1277.6C1277.727,585.39,1277.865,585.131,1278.013,584.879Zm-1.525,4.745a11.643,11.643,0,0,1,.75-3.142h3.206a19.46,19.46,0,0,0-.438,3.273h-3.528C1276.48,589.711,1276.483,589.668,1276.488,589.624Zm.252,3.739a11.551,11.551,0,0,1-.3-2.782h3.542a19.775,19.775,0,0,0,.23,3.274h-3.345C1276.819,593.691,1276.779,593.528,1276.74,593.363Zm1.6,3.739a11.541,11.541,0,0,1-1.215-2.42h3.23a16.657,16.657,0,0,0,1,3.274h-2.4C1278.74,597.679,1278.536,597.4,1278.344,597.1Zm2.485,2.736a11.633,11.633,0,0,1-1.149-1.055h2.065a11.352,11.352,0,0,0,1.883,2.72A11.7,11.7,0,0,1,1280.829,599.838Zm14.716,0a11.7,11.7,0,0,1-2.8,1.666,11.317,11.317,0,0,0,1.884-2.721h2.064A11.592,11.592,0,0,1,1295.545,599.838Zm3.169-3.92a11.655,11.655,0,0,1-1.3,2.038h-2.4a16.682,16.682,0,0,0,1-3.274h3.23A11.736,11.736,0,0,1,1298.714,595.917Zm-2.55-2.063a19.762,19.762,0,0,0,.229-3.274h3.54a11.371,11.371,0,0,1-.425,3.274Z" transform="translate(-1275.229 -577.936)"/></g></g><g transform="translate(470.257 145.95)"><path class="a" d="M827.962,198.68v8.863a.832.832,0,0,1-1.234.728l-8.9-4.907a.832.832,0,0,1,.064-1.489l8.9-3.956A.832.832,0,0,1,827.962,198.68Z" transform="translate(-817.4 -197.847)"/></g><g transform="translate(651.775 334.736)"><path class="a" d="M1346.444,747.049c13.558-.206,9.385-.653,5.339,10.142a1.053,1.053,0,0,1-1.9.048l-4.377-8.662A1.053,1.053,0,0,1,1346.444,747.049Z" transform="translate(-1345.39 -746.978)"/></g><g transform="translate(581.48 247.057)"><g transform="translate(0.664)"><path class="a" d="M1153.134,500.274l-10.285-2.93c.866-.737,15.857-5.5,16.994-5.4Z" transform="translate(-1142.849 -491.941)"/></g><g transform="translate(0 0.395)"><path class="a" d="M1160.439,494.306c5.015,14.767,3.984,9.482-13.826,16.116a2.353,2.353,0,0,1-2.954-1.53c-.158-1.067-3.34-8.973-2.641-9.916l11.212,3.194,7.312-9.08A2.334,2.334,0,0,1,1160.439,494.306Z" transform="translate(-1140.919 -493.09)"/></g></g><g transform="translate(587.612 150.184)"><g transform="translate(2.312 16.253)"><path class="a" d="M1165.831,258.46c1.435-2.409,5.185-.1,3.68,2.265C1168.077,263.133,1164.326,260.826,1165.831,258.46Z" transform="translate(-1165.481 -257.439)"/></g><g transform="translate(1.022 12.053)"><path class="a" d="M1170.6,252.354c-.854-.835.323-2.642-2.911-4.8a5.587,5.587,0,0,0-5.011-.579.676.676,0,0,1-.561-1.229C1169.21,242.858,1173.9,252.953,1170.6,252.354Z" transform="translate(-1161.729 -245.222)"/></g><g transform="translate(0.513 7.78)"><path class="a" d="M1173.452,242.877a.675.675,0,0,1-.321-.594c.243-5.387-7.418-9.764-11.934-7.538a.676.676,0,0,1-.562-1.229C1171.153,229.511,1177.137,243.489,1173.452,242.877Z" transform="translate(-1160.249 -232.794)"/></g><g transform="translate(0.519 4.005)"><path class="a" d="M1176.661,234.079a.675.675,0,0,1-.321-.594c.318-6.835-9.388-12.4-15.127-9.563a.675.675,0,0,1-.562-1.228c6.66-3.282,17.439,3.1,17.039,10.828A.679.679,0,0,1,1176.661,234.079Z" transform="translate(-1160.265 -221.813)"/></g><g transform="translate(0 0)"><path class="a" d="M1179.258,225.244c-.831-9.663-10.76-16.1-19.554-12.76a.676.676,0,0,1-.563-1.228c8.245-4.066,21.643,3.847,21.145,13.431A.679.679,0,0,1,1179.258,225.244Z" transform="translate(-1158.756 -210.164)"/></g></g><g transform="translate(508.3 187.599)"><path class="a" d="M936.631,321.135c.156.257,2.274,7.746,2.586,7.667,1.12-.153,1.433-1.78,1.449-2.872-.152-3.893-4.019-7.106-7.767-4.977-9.9,6.1,3.947,19.8,9.453,8.3l1.722-.862c-3.533,12.626-20.5,5.077-14.893-6a6.906,6.906,0,0,1,12.864,3.559c.167,1.924-2.016,6.139-4.168,4.183-.932,3.317-4.827,2.776-6.061-.23-1.743-2.907-.888-9.2,3.5-6.924l-.324-1.026Zm-2.845,8.3c.574,1.481,2.428,2.131,2.972.4.268-1.432-.6-5.124-2.026-5.9C931.689,323.263,932.963,327.968,933.786,329.432Z" transform="translate(-928.056 -318.994)"/></g><g transform="translate(482.498 118.761)"><g transform="translate(0 0)"><path class="a" d="M864.907,132.2l-5,1.517c-1.914-4.366,1.858-5.637,2.382-9.383-1.178-2.707-4.766-.137-3.672,2.478l-5.294.917c-2.945-9.153,15.486-13.238,14.346-2.8C867.39,126.909,863.792,129.8,864.907,132.2Zm-4.766,2.9,5.353-1.624,1.433,4.722-5.353,1.624Z" transform="translate(-853.004 -118.761)"/></g></g><g transform="translate(680.672 296.353)"><path class="a" d="M1451.332,649.51c-2.908-2.93-4.71,1.591-7.4-.163-2.377-1.693-7.225-4.7-6-8.262a3.479,3.479,0,0,0-5.13-4.7l-1.933,1.988h0c-5.984,4.7,8.516,16.009,13.793,19.1,2.788,1.647,4.549-.805,6.182-2.486h0A3.622,3.622,0,0,0,1451.332,649.51Z" transform="translate(-1429.444 -635.333)"/></g><path class="f" d="M726.418,796.425H329.447a5.354,5.354,0,0,1-5.354-5.354h0a5.354,5.354,0,0,1,5.354-5.354H726.418a5.354,5.354,0,0,1,5.354,5.354h0A5.354,5.354,0,0,1,726.418,796.425Z" transform="translate(-23.429 -437.663)"/></g></svg>